Coordinates
version=1
nRows=27
nColumns=12
inDegrees=yes

Units are S.I. units (second, meters, Newtons, ...)
Angles are in degrees

endheader
time	SC_y	SC_z	SC_x	AC_y	AC_z	AC_x	GH_y	GH_z	GH_yy	EL_x	PS_y
       0.0              -45.47          27.27           70.5          60.69         -2.232         -2.466         -66.39          27.81          29.23          84.47          137.2
   0.03266              -45.47          27.26           70.5          60.68         -2.234         -2.468         -66.39          27.81          29.23          84.47          137.2
   0.06533              -45.47          27.26          70.49          60.68         -2.237         -2.471         -66.39          27.81          29.24          84.46          137.2
   0.09799              -45.47          27.26          70.49          60.68         -2.239         -2.473         -66.39          27.81          29.24          84.46          137.2
    0.1307              -45.47          27.26          70.48          60.68         -2.242         -2.476         -66.39          27.81          29.25          84.45          137.2
    0.1633              -45.46          27.25          70.48          60.67         -2.245         -2.479         -66.39          27.81          29.25          84.45          137.2
     0.196              -45.46          27.25          70.48          60.67         -2.248         -2.482         -66.39          27.81          29.26          84.44          137.2
    0.2286              -45.46          27.25          70.47          60.67         -2.251         -2.486         -66.39          27.81          29.27          84.44          137.1
    0.2613              -45.45          27.25          70.47          60.66         -2.255          -2.49         -66.39          27.82          29.28          84.43          137.1
     0.294              -45.45          27.24          70.46          60.66         -2.259         -2.494          -66.4          27.82          29.28          84.42          137.1
    0.3266              -45.45          27.24          70.45          60.66         -2.263         -2.498          -66.4          27.82          29.29          84.42          137.1
    0.3593              -45.44          27.24          70.45          60.65         -2.268         -2.503          -66.4          27.82           29.3          84.41          137.1
     0.392              -45.44          27.23          70.44          60.65         -2.272         -2.508          -66.4          27.82          29.31           84.4          137.1
    0.4246              -45.44          27.23          70.43          60.64         -2.278         -2.513          -66.4          27.83          29.32          84.39          137.0
    0.4573              -45.43          27.22          70.43          60.64         -2.283         -2.519          -66.4          27.83          29.34          84.38          137.0
      0.49              -45.42          27.22          70.42          60.63         -2.289         -2.525          -66.4          27.83          29.35          84.37          137.0
    0.5226              -45.42          27.21          70.41          60.62         -2.296         -2.532          -66.4          27.83          29.36          84.36          137.0
    0.5553              -45.41          27.21           70.4          60.62         -2.303          -2.54         -66.41          27.84          29.38          84.35          136.9
     0.588              -45.41           27.2          70.39          60.61         -2.311         -2.548         -66.41          27.84           29.4          84.33          136.9
    0.6206               -45.4          27.19          70.38           60.6          -2.32         -2.557         -66.41          27.84          29.41          84.32          136.9
    0.6533              -45.39          27.19          70.36          60.59         -2.329         -2.567         -66.41          27.85          29.43           84.3          136.8
    0.6859              -45.38          27.18          70.35          60.58          -2.34         -2.578         -66.42          27.85          29.46          84.28          136.8
    0.7186              -45.37          27.17          70.33          60.57         -2.351          -2.59         -66.42          27.85          29.48          84.26          136.8
    0.7513              -45.36          27.16          70.31          60.56         -2.364         -2.603         -66.42          27.86          29.51          84.24          136.7
    0.7839              -45.35          27.15          70.29          60.54         -2.378         -2.618         -66.42          27.87          29.54          84.22          136.7
    0.8166              -45.33          27.14          70.27          60.53         -2.394         -2.634         -66.43          27.87          29.57          84.19          136.6
    0.8493              -45.32          27.12          70.25          60.51         -2.412         -2.652         -66.43          27.88          29.61          84.16          136.5
